
<svg xmlns="http://www.w3.org/2000/svg" width="36" height="36" viewBox="0 0 36 36" fill="none">
  <path fill-rule="evenodd" clip-rule="evenodd" d="M8.21973 10.5276C8.21973 9.8987 8.72952 9.38891 9.35838 9.38891H26.5432C27.172 9.38891 27.6818 9.8987 27.6818 10.5276V21.6542C27.6818 22.2831 27.172 22.7928 26.5432 22.7928H25.3759C25.2187 22.7928 25.0913 22.9203 25.0913 23.0775V26.3072C25.0913 26.5929 24.7174 26.7005 24.5655 26.4586L22.348 22.9262C22.2959 22.8432 22.2048 22.7928 22.1069 22.7928H9.35838C8.72952 22.7928 8.21973 22.2831 8.21973 21.6542V10.5276ZM17.9552 19.7239C15.1672 19.7239 12.8699 17.088 12.5608 13.6945H23.3496C23.0405 17.088 20.7432 19.7239 17.9552 19.7239Z" fill="#0F5853"></path>
</svg>