<svg xmlns="http://www.w3.org/2000/svg" width="36" height="36" viewBox="0 0 36 36" fill="none">
  <path d="M18.0518 19.6265L15.5888 16.0905H25.8576C25.6126 15.3424 25.0576 14.08 23.8575 12.7965C22.1498 10.9702 19.6612 9.92268 17.0296 9.92268H16.7491C14.6514 9.92268 12.6792 10.7436 11.1959 12.2343C9.71264 13.725 8.89575 15.7069 8.89575 17.815V18.1833C8.89575 20.2915 9.71264 22.2734 11.1959 23.7641C12.6792 25.2547 14.6514 26.0757 16.7491 26.0757H26.5512L27.0567 21.207H21.0723C19.8702 21.207 18.7411 20.6162 18.0518 19.6265Z" fill="#0F5853"></path>
  <path d="M21.7078 19.9837H26.9438C26.7703 19.395 26.4044 18.3101 25.8088 17.3139H20.0264L21.7078 19.9837Z" fill="#0F5853"></path>
  <path d="M20.1548 17.3139H18.5836L19.7405 18.9748C20.1806 19.6065 20.9014 19.9837 21.6688 19.9837H21.7485L20.1548 17.3139Z" fill="#0F5853"></path>
</svg>