

<svg xmlns="http://www.w3.org/2000/svg" width="36" height="36" viewBox="0 0 36 36" fill="none">
  <path fill-rule="evenodd" clip-rule="evenodd" d="M17.9347 10.1895C18.2801 10.1895 18.5601 10.4676 18.5601 10.8106V12.075C20.6533 12.2238 22.6313 13.1159 24.125 14.5995C25.7667 16.2302 26.6891 18.4418 26.6891 20.7479C26.6891 21.2421 26.4914 21.716 26.1396 22.0655C25.7878 22.4149 25.3107 22.6112 24.8131 22.6112H11.0563C10.5588 22.6112 10.0817 22.4149 9.72987 22.0655C9.37806 21.716 9.18042 21.2421 9.18042 20.7479C9.18042 18.4418 10.1027 16.2302 11.7445 14.5995C13.2382 13.1159 15.2162 12.2238 17.3094 12.075V10.8106C17.3094 10.4676 17.5894 10.1895 17.9347 10.1895ZM9.18042 24.9477C9.18042 24.6046 9.46038 24.3266 9.80573 24.3266H26.0638C26.4091 24.3266 26.6891 24.6046 26.6891 24.9477C26.6891 25.2907 26.4091 25.8053 26.0638 25.8053H9.80573C9.46038 25.8053 9.18042 25.2907 9.18042 24.9477Z" fill="#0F5853"></path>
</svg>