
<svg xmlns="http://www.w3.org/2000/svg" width="36" height="36" viewBox="0 0 36 36" fill="none">
  <path fill-rule="evenodd" clip-rule="evenodd" d="M24.9566 14.3116C24.564 13.5459 24.0635 12.8615 23.4652 12.2722C22.8609 11.6891 22.164 11.2061 21.3886 10.8331C21.3568 10.8178 21.3492 10.7758 21.3738 10.7506L23.0745 9.00608C23.0943 8.98578 23.1268 8.98537 23.1471 9.00515L26.7393 12.5071C26.7596 12.5269 26.76 12.5594 26.7402 12.5797L25.0395 14.3242C25.0149 14.3495 24.9727 14.3429 24.9566 14.3116ZM22.9686 27.0235C22.9477 27.0427 22.9153 27.0414 22.896 27.0206L21.2436 25.2308C21.2196 25.2048 21.2286 25.1629 21.2609 25.1486C22.8417 24.449 24.0984 23.2888 24.9217 21.7688C24.9385 21.7377 24.981 21.7321 25.005 21.7581L26.6575 23.5479C26.6767 23.5687 26.6754 23.6012 26.6546 23.6204L22.9686 27.0235ZM13.0446 27.0235C13.0654 27.0427 13.0979 27.0414 13.1171 27.0206L14.7696 25.2308C14.7935 25.2048 14.7846 25.1629 14.7522 25.1486C13.1715 24.449 11.9148 23.2888 11.0915 21.7688C11.0746 21.7377 11.0321 21.7321 11.0081 21.7581L9.3557 23.5479C9.33647 23.5687 9.33777 23.6012 9.35859 23.6204L13.0446 27.0235ZM13.122 8.94306C13.1027 8.92224 13.0703 8.92094 13.0495 8.94017L9.36344 12.3433C9.34261 12.3625 9.34132 12.395 9.36054 12.4158L11.013 14.2056C11.037 14.2316 11.0795 14.226 11.0963 14.1949C11.9196 12.6749 13.1763 11.5147 14.7571 10.8151C14.7894 10.8008 14.7984 10.7589 14.7744 10.7329L13.122 8.94306ZM13.4714 13.0501C16.1981 10.5328 20.4489 10.7025 22.9663 13.4291C25.4794 16.1573 25.3099 20.4047 22.5873 22.9239C19.8607 25.4413 15.6098 25.2716 13.0925 22.545C10.5752 19.8183 10.7448 15.5675 13.4714 13.0501Z" fill="#0F5853"></path>
</svg>