



<svg xmlns="http://www.w3.org/2000/svg" width="36" height="36" viewBox="0 0 36 36" fill="none">
  <path d="M16.2984 8.48153C15.2164 8.48279 14.179 8.9132 13.4138 9.67834C12.8103 10.2819 12.415 11.0548 12.2744 11.8855C12.2116 12.256 12.5219 12.5629 12.8977 12.5629C13.2731 12.5629 13.5691 12.2539 13.662 11.8901C13.7818 11.4206 14.026 10.9874 14.3745 10.6389C14.8847 10.1287 15.5768 9.842 16.2984 9.842C17.0201 9.842 17.7122 10.1287 18.2224 10.6389C18.5709 10.9874 18.8151 11.4206 18.9349 11.8901C19.0278 12.2539 19.3238 12.5629 19.6992 12.5629C20.075 12.5629 20.3853 12.256 20.3225 11.8855C20.1819 11.0548 19.7866 10.2819 19.183 9.67834C18.4179 8.9132 17.3805 8.48279 16.2984 8.48153Z" fill="#0F5853"></path>
  <path d="M21.7402 27.5281H18.72C18.0375 27.5279 17.38 27.2713 16.8779 26.8091L10.6197 21.0502C10.4736 20.9166 10.3584 20.7528 10.282 20.5701C10.2057 20.3875 10.1701 20.1903 10.1778 19.9925C10.1854 19.7947 10.2361 19.6009 10.3263 19.4247C10.4165 19.2484 10.544 19.094 10.7 18.9721C10.9672 18.7763 11.2948 18.6808 11.6254 18.7023C11.956 18.7238 12.2685 18.861 12.5081 19.0898L14.9378 21.3087V12.5629C14.9378 12.2021 15.0812 11.856 15.3363 11.6009C15.5915 11.3458 15.9375 11.2024 16.2983 11.2024C16.6591 11.2024 17.0052 11.3458 17.2603 11.6009C17.5155 11.856 17.6588 12.2021 17.6588 12.5629V17.3246C17.6588 16.9637 17.8021 16.6177 18.0573 16.3626C18.3124 16.1074 18.6584 15.9641 19.0193 15.9641C19.3801 15.9641 19.7261 16.1074 19.9813 16.3626C20.2364 16.6177 20.3797 16.9637 20.3797 17.3246V18.0048C20.3797 17.644 20.5231 17.2979 20.7782 17.0428C21.0333 16.7877 21.3794 16.6443 21.7402 16.6443C22.101 16.6443 22.4471 16.7877 22.7022 17.0428C22.9573 17.2979 23.1007 17.644 23.1007 18.0048V18.685C23.1007 18.3242 23.244 17.9782 23.4991 17.723C23.7543 17.4679 24.1003 17.3246 24.4611 17.3246C24.822 17.3246 25.168 17.4679 25.4231 17.723C25.6783 17.9782 25.8216 18.3242 25.8216 18.685V23.4467C25.8216 24.5291 25.3916 25.5672 24.6262 26.3327C23.8608 27.0981 22.8227 27.5281 21.7402 27.5281Z" fill="#0F5853"></path>
</svg>