<svg xmlns="http://www.w3.org/2000/svg" width="36" height="36" viewBox="0 0 36 36" fill="none">
  <path d="M25.6574 25.7311L24.8615 25.6419V9.58313C24.8615 9.10249 24.4749 8.71288 23.9979 8.71288H11.9072C11.4302 8.71288 11.0436 9.10249 11.0436 9.58313V25.6419L10.2477 25.7311C10.0106 25.8501 9.89209 26.3127 9.89209 26.553C9.89209 26.9535 10.2168 27.2782 10.6173 27.2782H25.2878C25.6884 27.2782 26.013 26.9535 26.013 26.553C26.013 26.3127 25.8945 25.8501 25.6574 25.7311ZM14.4981 11.4687C14.4981 11.2284 14.6914 11.0335 14.9299 11.0335H16.3693C16.6077 11.0335 16.8011 11.2284 16.8011 11.4687V12.9191C16.8011 13.1594 16.6077 13.3542 16.3693 13.3542H14.9299C14.6914 13.3542 14.4981 13.1594 14.4981 12.9191V11.4687ZM14.4981 14.9497C14.4981 14.7094 14.6914 14.5145 14.9299 14.5145H16.3693C16.6077 14.5145 16.8011 14.7094 16.8011 14.9497V16.4001C16.8011 16.6404 16.6077 16.8352 16.3693 16.8352H14.9299C14.6914 16.8352 14.4981 16.6404 14.4981 16.4001V14.9497ZM16.3693 20.3162H14.9299C14.6914 20.3162 14.4981 20.1214 14.4981 19.8811V18.4307C14.4981 18.1904 14.6914 17.9956 14.9299 17.9956H16.3693C16.6077 17.9956 16.8011 18.1904 16.8011 18.4307V19.8811C16.8011 20.1214 16.6077 20.3162 16.3693 20.3162ZM19.1041 26.1179H16.8011V23.072C16.8011 22.8317 16.9944 22.6369 17.2329 22.6369H18.6723C18.9107 22.6369 19.1041 22.8317 19.1041 23.072V26.1179ZM21.4071 19.8811C21.4071 20.1214 21.2137 20.3162 20.9752 20.3162H19.5359C19.2974 20.3162 19.1041 20.1214 19.1041 19.8811V18.4307C19.1041 18.1904 19.2974 17.9956 19.5359 17.9956H20.9752C21.2137 17.9956 21.4071 18.1904 21.4071 18.4307V19.8811ZM21.4071 16.4001C21.4071 16.6404 21.2137 16.8352 20.9752 16.8352H19.5359C19.2974 16.8352 19.1041 16.6404 19.1041 16.4001V14.9497C19.1041 14.7094 19.2974 14.5145 19.5359 14.5145H20.9752C21.2137 14.5145 21.4071 14.7094 21.4071 14.9497V16.4001ZM21.4071 12.9191C21.4071 13.1594 21.2137 13.3542 20.9752 13.3542H19.5359C19.2974 13.3542 19.1041 13.1594 19.1041 12.9191V11.4687C19.1041 11.2284 19.2974 11.0335 19.5359 11.0335H20.9752C21.2137 11.0335 21.4071 11.2284 21.4071 11.4687V12.9191Z" fill="#0F5853"></path>
</svg>