<svg xmlns="http://www.w3.org/2000/svg" width="36" height="36" viewBox="0 0 36 36" fill="none">
  <path d="M14.9415 20.8511C14.8478 20.6801 14.6683 20.5738 14.4733 20.5738H11.3162C11.1462 20.5738 10.9864 20.6547 10.8859 20.7917C10.7853 20.9287 10.756 21.1053 10.8069 21.2674C11.8123 24.4693 14.7125 26.8499 18.2057 27.0692V23.0684C16.8356 22.8984 15.6156 22.0816 14.9415 20.8511Z" fill="#0F5853"></path>
  <path d="M21.2191 10.9211C21.0571 10.8707 20.8803 10.8998 20.7434 10.9994C20.6064 11.0991 20.5255 11.2574 20.5255 11.4259V14.5549C20.5255 14.7481 20.6318 14.926 20.8028 15.0188C22.0333 15.687 22.8501 16.8961 23.0201 18.2539H27.021C26.8011 14.7844 24.4135 11.9153 21.2191 10.9211Z" fill="#0F5853"></path>
  <path d="M22.9923 19.3144C22.7524 21.2734 21.2085 22.8306 19.2662 23.0726V27.0692C23.3922 26.8073 26.6947 23.4816 26.9547 19.3144H22.9923Z" fill="#0F5853"></path>
  <path fill-rule="evenodd" clip-rule="evenodd" d="M8.86011 18.7825C8.86011 13.3248 13.2771 8.90855 18.7341 8.90855C19.0279 8.90855 19.2661 9.14674 19.2661 9.44055V18.7825C19.2661 19.0763 19.0279 19.3145 18.7341 19.3145H9.3921C9.09829 19.3145 8.86011 19.0763 8.86011 18.7825ZM17.0422 13.7469H18.2057V18.254H17.0422L17.0422 13.7469ZM15.2047 14.4806L16.3683 14.4806L16.3683 18.254H15.2047V14.4806ZM14.5308 16.1053H13.3673V18.254H14.5308L14.5308 16.1053Z" fill="#0F5853"></path>
</svg>