

<svg xmlns="http://www.w3.org/2000/svg" width="36" height="36" viewBox="0 0 36 36" fill="none">
  <path d="M22.564 9.21683C22.3096 9.47178 22.3096 9.88161 22.3096 10.7021V22.0138C22.3096 22.8344 22.3096 23.2442 22.564 23.4992C22.8185 23.7541 23.2275 23.7541 24.0464 23.7541C24.8653 23.7541 25.2743 23.7541 25.5288 23.4992C25.7832 23.2442 25.7832 22.8344 25.7832 22.0138V10.7021C25.7832 9.88161 25.7832 9.47178 25.5288 9.21683C25.2743 8.96188 24.8653 8.96188 24.0464 8.96188C23.2275 8.96188 22.8185 8.96188 22.564 9.21683ZM16.2308 13.3125C16.2308 12.492 16.2308 12.0822 16.4852 11.8272C16.7396 11.5723 17.1487 11.5723 17.9676 11.5723C18.7865 11.5723 19.1955 11.5723 19.4499 11.8272C19.7044 12.0822 19.7044 12.492 19.7044 13.3125V22.0138C19.7044 22.8344 19.7044 23.2442 19.4499 23.4992C19.1955 23.7541 18.7865 23.7541 17.9676 23.7541C17.1487 23.7541 16.7396 23.7541 16.4852 23.4992C16.2308 23.2442 16.2308 22.8344 16.2308 22.0138V13.3125ZM10.4064 15.3077C10.1519 15.5627 10.1519 15.9725 10.1519 16.7931V22.0138C10.1519 22.8344 10.1519 23.2442 10.4064 23.4992C10.6608 23.7541 11.0698 23.7541 11.8887 23.7541C12.7076 23.7541 13.1167 23.7541 13.3711 23.4992C13.6255 23.2442 13.6255 22.8344 13.6255 22.0138V16.7931C13.6255 15.9725 13.6255 15.5627 13.3711 15.3077C13.1167 15.0528 12.7076 15.0528 11.8887 15.0528C11.0698 15.0528 10.6608 15.0528 10.4064 15.3077ZM10.1519 25.4746C9.97918 25.4746 9.81352 25.5433 9.69137 25.6657C9.56923 25.7881 9.50061 25.9541 9.50061 26.1272C9.50061 26.3003 9.56923 26.7036 9.69137 26.8259C9.81352 26.9483 9.97918 27.0171 10.1519 27.0171H25.7832C25.956 27.0171 26.1216 26.9483 26.2438 26.8259C26.3659 26.7036 26.4345 26.3003 26.4345 26.1272C26.4345 25.9541 26.3659 25.7881 26.2438 25.6657C26.1216 25.5433 25.956 25.4746 25.7832 25.4746H10.1519Z" fill="#0F5853"></path>
  <path d="M22.564 9.21683C22.3096 9.47178 22.3096 9.88161 22.3096 10.7021V22.0138C22.3096 22.8344 22.3096 23.2442 22.564 23.4992C22.8185 23.7541 23.2275 23.7541 24.0464 23.7541C24.8653 23.7541 25.2743 23.7541 25.5288 23.4992C25.7832 23.2442 25.7832 22.8344 25.7832 22.0138V10.7021C25.7832 9.88161 25.7832 9.47178 25.5288 9.21683C25.2743 8.96188 24.8653 8.96188 24.0464 8.96188C23.2275 8.96188 22.8185 8.96188 22.564 9.21683ZM16.2308 13.3125C16.2308 12.492 16.2308 12.0822 16.4852 11.8272C16.7396 11.5723 17.1487 11.5723 17.9676 11.5723C18.7865 11.5723 19.1955 11.5723 19.4499 11.8272C19.7044 12.0822 19.7044 12.492 19.7044 13.3125V22.0138C19.7044 22.8344 19.7044 23.2442 19.4499 23.4992C19.1955 23.7541 18.7865 23.7541 17.9676 23.7541C17.1487 23.7541 16.7396 23.7541 16.4852 23.4992C16.2308 23.2442 16.2308 22.8344 16.2308 22.0138V13.3125ZM10.4064 15.3077C10.1519 15.5627 10.1519 15.9725 10.1519 16.7931V22.0138C10.1519 22.8344 10.1519 23.2442 10.4064 23.4992C10.6608 23.7541 11.0698 23.7541 11.8887 23.7541C12.7076 23.7541 13.1167 23.7541 13.3711 23.4992C13.6255 23.2442 13.6255 22.8344 13.6255 22.0138V16.7931C13.6255 15.9725 13.6255 15.5627 13.3711 15.3077C13.1167 15.0528 12.7076 15.0528 11.8887 15.0528C11.0698 15.0528 10.6608 15.0528 10.4064 15.3077ZM10.1519 25.4746C9.97918 25.4746 9.81352 25.5433 9.69137 25.6657C9.56923 25.7881 9.50061 25.9541 9.50061 26.1272C9.50061 26.3003 9.56923 26.7036 9.69137 26.8259C9.81352 26.9483 9.97918 27.0171 10.1519 27.0171H25.7832C25.956 27.0171 26.1216 26.9483 26.2438 26.8259C26.3659 26.7036 26.4345 26.3003 26.4345 26.1272C26.4345 25.9541 26.3659 25.7881 26.2438 25.6657C26.1216 25.5433 25.956 25.4746 25.7832 25.4746H10.1519Z" fill="#0F5853"></path>
</svg>