

<svg xmlns="http://www.w3.org/2000/svg" width="36" height="36" viewBox="0 0 36 36" fill="none">
  <path fill-rule="evenodd" clip-rule="evenodd" d="M17.9685 9.49574C18.3507 9.49573 18.7003 9.7138 18.8715 10.0592L21.1333 14.62L26.5322 15.2159C26.9331 15.2601 27.2696 15.5412 27.3881 15.9308C27.5065 16.3205 27.3843 16.744 27.0772 17.0082L23.1415 20.3937L24.1808 25.2605C24.2633 25.6465 24.118 26.046 23.8079 26.2862C23.4977 26.5264 23.0783 26.5643 22.7309 26.3834L17.9686 23.9037L13.2063 26.3841C12.8589 26.565 12.4394 26.5272 12.1292 26.287C11.819 26.0468 11.6738 25.6473 11.7562 25.2612L12.7956 20.3943L8.85971 17.0073C8.55265 16.7431 8.43053 16.3196 8.54904 15.93C8.66755 15.5404 9.00399 15.2594 9.40488 15.2151L14.8045 14.6192L17.0655 10.0593C17.2368 9.71386 17.5862 9.49576 17.9685 9.49574ZM17.9686 12.7952L16.3641 16.0311C16.2105 16.341 15.9117 16.551 15.5707 16.5886L11.9533 16.9878L14.5652 19.2355C14.8485 19.4793 14.9763 19.8607 14.8978 20.2282L14.1822 23.5788L17.5058 21.8478C17.7961 21.6966 18.1408 21.6965 18.4311 21.8477L21.7549 23.5784L21.0393 20.2275C20.9608 19.8599 21.0886 19.4784 21.372 19.2346L23.9832 16.9885L20.3671 16.5893C20.0262 16.5517 19.7274 16.3418 19.5738 16.0319L17.9686 12.7952Z" fill="#0F5853"></path>
</svg>