

<svg xmlns="http://www.w3.org/2000/svg" width="36" height="36" viewBox="0 0 36 36" fill="none">
  <path d="M20.3396 27.2984C22.5748 23.4155 21.6558 18.5459 18.1312 15.6972C18.1291 15.6955 18.1009 15.6887 18.1121 15.7242L18.1271 15.7592L18.1335 15.7758C18.8202 17.5509 18.7118 19.4641 17.8682 21.1361C17.6866 21.496 17.1472 21.4116 17.0913 21.0124C16.9693 20.1427 16.6375 19.3125 16.1268 18.5985C16.1106 18.5758 16.0925 18.5546 16.0728 18.5349C16.014 18.4774 15.9145 18.5193 15.9133 18.6015C15.8945 19.8818 15.6603 21.1921 15.1213 22.3781C14.3732 24.0198 14.4831 25.9129 15.4156 27.443C15.619 27.7768 15.2772 28.1761 14.916 28.0268L14.9014 28.0207C12.9923 27.2315 11.4661 25.7111 10.7139 23.8494C9.87115 21.7706 10.0272 19.3602 11.1318 17.4031C11.7078 16.385 12.1113 15.3041 12.3315 14.1897C12.4054 13.8149 12.9084 13.7389 13.0961 14.0717C13.3583 14.5362 13.5514 15.039 13.6712 15.5672L13.683 15.6114L13.6988 15.6735C13.7015 15.6842 13.714 15.6891 13.7233 15.6831C13.7248 15.6821 13.7262 15.6808 13.7273 15.6794C15.3715 13.5409 16.3391 10.8595 16.4828 8.16561C16.4993 7.85375 16.846 7.67551 17.1092 7.84348L17.1184 7.84935C19.5615 9.40726 21.2582 11.9067 21.7823 14.7151L21.7939 14.7712C21.7941 14.7722 21.7942 14.7732 21.7942 14.7742C21.7942 14.7878 21.8109 14.7943 21.8201 14.7843L21.8377 14.765C22.3165 14.1462 22.5588 13.3896 22.5588 12.6149C22.5588 12.2241 23.0595 12.0625 23.2986 12.3716C25.0187 14.5946 25.9006 17.3523 25.782 20.1369C25.6363 23.4147 23.8095 26.2916 20.895 27.8503L20.8815 27.8576C20.5225 28.0496 20.1365 27.6512 20.3396 27.2984Z" fill="#0F5853"></path>
</svg>
