
<svg xmlns="http://www.w3.org/2000/svg" width="36" height="36" viewBox="0 0 36 36" fill="none">
  <path fill-rule="evenodd" clip-rule="evenodd" d="M14.7922 9.24663C15.2114 9.24663 15.5512 9.58745 15.5512 10.0079V10.0459H19.6118V10.0079C19.6118 9.58745 19.9516 9.24663 20.3708 9.24663C20.79 9.24663 21.1298 9.58745 21.1298 10.0079V10.0459H21.9647C23.0115 10.0459 24.0153 10.463 24.7555 11.2054C25.4957 11.9477 25.9115 12.9546 25.9115 14.0044V16.4024C25.9115 16.8228 25.5717 17.1636 25.1525 17.1636C24.7333 17.1636 24.3935 16.8228 24.3935 16.4024V15.565H10.7696V21.1982C10.7696 21.8443 11.0255 22.4639 11.4809 22.9207C11.9364 23.3776 12.5542 23.6342 13.1983 23.6342H15.5892C16.0084 23.6342 16.3482 23.975 16.3482 24.3954C16.3482 24.8159 16.0084 25.1567 15.5892 25.1567H13.1983C12.1516 25.1567 11.1477 24.7396 10.4076 23.9973C9.66741 23.2549 9.25159 22.2481 9.25159 21.1982V14.0044C9.25159 12.9546 9.66741 11.9477 10.4076 11.2054C11.1477 10.463 12.1516 10.0459 13.1983 10.0459H14.0332V10.0079C14.0332 9.58745 14.3731 9.24663 14.7922 9.24663ZM23.6968 20.3746C23.9932 20.6719 23.9932 21.1539 23.6968 21.4511L22.5014 22.6501C22.205 22.9474 21.7244 22.9474 21.428 22.6501C21.1316 22.3528 21.1316 21.8708 21.428 21.5735L22.6234 20.3746C22.9198 20.0773 23.4004 20.0773 23.6968 20.3746Z" fill="#0F5853"></path>
  <path fill-rule="evenodd" clip-rule="evenodd" d="M21.9649 18.7621C20.1834 18.7621 18.7392 20.2106 18.7392 21.9974C18.7392 23.7842 20.1834 25.2327 21.9649 25.2327C23.7464 25.2327 25.1906 23.7842 25.1906 21.9974C25.1906 20.2106 23.7464 18.7621 21.9649 18.7621ZM17.2212 21.9974C17.2212 19.3697 19.345 17.2396 21.9649 17.2396C24.5848 17.2396 26.7086 19.3697 26.7086 21.9974C26.7086 24.6251 24.5848 26.7552 21.9649 26.7552C19.345 26.7552 17.2212 24.6251 17.2212 21.9974Z" fill="#0F5853"></path>
</svg>
