<svg xmlns="http://www.w3.org/2000/svg" width="36" height="36" viewBox="0 0 36 36" fill="#0F5853">
  <path d="M17.9476 18.574C17.9476 20.0744 16.9397 21.0011 14.9469 21.332V27.4879H12.6792V21.332C10.6864 21.0011 9.67859 20.0744 9.67859 18.574V8.89721C9.67859 8.69714 9.84565 8.53494 10.0517 8.53494H11.5569V17.2096C11.5569 17.6098 11.891 17.9342 12.3032 17.9342H12.9541V8.53494H14.695V17.9342H15.3459C15.7581 17.9342 16.0922 17.6098 16.0922 17.2096V8.53494H17.5973C17.8034 8.53494 17.9705 8.69714 17.9705 8.89721V18.574H17.9476Z" fill="#0F5853"></path>
  <path d="M26.262 21.5677C26.2536 17.2544 25.7596 13.9724 24.793 11.8127C23.8197 9.63766 22.3406 8.53488 20.3971 8.53488C20.3653 8.53488 20.3396 8.55941 20.3396 8.58966V8.59044C20.3396 8.59044 20.3614 14.8708 20.4045 27.4326V27.4878H22.7779V23.5956C22.7997 22.5045 23.7246 21.6233 24.8582 21.6233H26.2624V21.5677H26.262Z" fill="#0F5853"></path>
</svg>